<svg xmlns="http://www.w3.org/2000/svg" id="svg-icon-pay-assist" viewBox="0 0 85 40"><path fill-rule="evenodd" clip-rule="evenodd" fill="#006B35" d="M46.9,25.3h-1.8l0.2-1.3c-0.3,0.2-0.5,0.3-0.7,0.5c-0.2,0.2-0.5,0.3-0.8,0.5c-0.3,0.1-0.6,0.3-0.9,0.3 c-0.3,0.1-0.7,0.1-1.1,0.1c-0.4,0-0.7-0.1-0.9-0.2c-0.3-0.1-0.5-0.3-0.7-0.5c-0.2-0.2-0.3-0.5-0.3-0.7c-0.1-0.3-0.1-0.6,0-0.9 c0.1-0.4,0.2-0.8,0.4-1.1c0.2-0.3,0.5-0.6,0.8-0.9c0.3-0.3,0.7-0.5,1.1-0.7c0.4-0.2,0.8-0.4,1.3-0.5c0.4-0.2,0.9-0.3,1.3-0.4 c0.5-0.1,0.9-0.2,1.3-0.3l0.1-0.6c0.1-0.4,0.1-0.8,0.1-1.1c0-0.3-0.1-0.5-0.2-0.7c-0.1-0.2-0.3-0.3-0.5-0.4 c-0.2-0.1-0.4-0.1-0.7-0.1c-0.3,0-0.6,0-0.8,0.1c-0.2,0.1-0.4,0.2-0.5,0.3c-0.1,0.1-0.2,0.3-0.3,0.5c-0.1,0.2-0.1,0.3-0.2,0.5 c0,0.2-0.1,0.3-0.1,0.5c-0.1,0.1-0.1,0.3-0.2,0.4c-0.1,0.1-0.2,0.2-0.3,0.3c-0.1,0.1-0.3,0.1-0.5,0.1c-0.1,0-0.3,0-0.4-0.1 c-0.1-0.1-0.2-0.1-0.3-0.2c-0.1-0.1-0.1-0.2-0.1-0.3c0-0.1,0-0.3,0-0.4c0.1-0.3,0.2-0.6,0.5-0.9c0.3-0.3,0.6-0.5,0.9-0.7 c0.4-0.2,0.8-0.3,1.3-0.5c0.5-0.1,1-0.2,1.5-0.2c0.6,0,1.1,0.1,1.5,0.2c0.4,0.1,0.7,0.3,0.9,0.5c0.2,0.2,0.4,0.5,0.4,0.8 c0.1,0.3,0,0.6,0,1L46.9,25.3L46.9,25.3z M46.1,19.9L46.1,19.9c-0.3,0.1-0.6,0.2-0.9,0.3c-0.3,0.1-0.6,0.2-0.9,0.4 c-0.3,0.1-0.6,0.3-0.9,0.4c-0.3,0.2-0.5,0.3-0.7,0.5c-0.2,0.2-0.4,0.4-0.6,0.6c-0.1,0.2-0.2,0.4-0.3,0.6c0,0.2,0,0.4,0,0.6 c0,0.2,0.1,0.4,0.2,0.5c0.1,0.2,0.2,0.3,0.4,0.4c0.2,0.1,0.3,0.1,0.5,0.1c0.2,0,0.4,0,0.6-0.1c0.2-0.1,0.4-0.1,0.6-0.2 c0.2-0.1,0.4-0.2,0.6-0.3c0.2-0.1,0.4-0.3,0.6-0.4L46.1,19.9L46.1,19.9z M52.4,24.8c0.3,0,0.5,0,0.7-0.1c0.2-0.1,0.4-0.2,0.6-0.3 c0.2-0.1,0.3-0.3,0.4-0.4c0.1-0.2,0.2-0.3,0.2-0.5c0.1-0.3,0-0.5-0.1-0.7c-0.1-0.2-0.2-0.4-0.4-0.6c-0.2-0.2-0.4-0.3-0.7-0.5 c-0.3-0.1-0.5-0.3-0.8-0.4c-0.3-0.1-0.6-0.3-0.8-0.5c-0.3-0.2-0.5-0.4-0.7-0.6c-0.2-0.2-0.3-0.5-0.4-0.8c-0.1-0.3-0.1-0.6,0-1 c0.1-0.4,0.2-0.7,0.4-1c0.2-0.3,0.5-0.6,0.8-0.8c0.3-0.2,0.7-0.4,1.1-0.5c0.4-0.1,0.8-0.2,1.3-0.2c0.3,0,0.6,0,0.8,0.1 c0.3,0,0.5,0.1,0.7,0.2c0.2,0.1,0.5,0.3,0.7,0.5c0.2,0.2,0.4,0.5,0.6,0.9l-0.8,0.6c-0.2-0.6-0.5-1-0.9-1.3 c-0.4-0.3-0.8-0.4-1.3-0.4c-0.3,0-0.5,0-0.7,0.1c-0.2,0.1-0.4,0.2-0.6,0.3c-0.2,0.1-0.3,0.2-0.4,0.4c-0.1,0.1-0.2,0.3-0.2,0.5 c-0.1,0.3,0,0.5,0.1,0.7c0.1,0.2,0.3,0.4,0.5,0.6c0.2,0.2,0.5,0.3,0.8,0.5c0.3,0.1,0.6,0.3,0.9,0.4c0.3,0.1,0.6,0.3,0.9,0.5 c0.3,0.2,0.5,0.4,0.7,0.6c0.2,0.2,0.4,0.5,0.5,0.8c0.1,0.3,0.1,0.6,0,1c-0.1,0.4-0.2,0.8-0.4,1.1c-0.2,0.3-0.5,0.6-0.8,0.9 c-0.3,0.2-0.7,0.4-1.2,0.6c-0.5,0.1-1,0.2-1.6,0.2c-0.3,0-0.5,0-0.8-0.1c-0.3,0-0.5-0.1-0.8-0.2c-0.3-0.1-0.5-0.3-0.8-0.5 c-0.2-0.2-0.5-0.5-0.7-0.9l0.9-0.7c0.2,0.3,0.3,0.6,0.5,0.8c0.2,0.2,0.3,0.4,0.5,0.5c0.2,0.1,0.4,0.2,0.6,0.3 C51.9,24.8,52.1,24.8,52.4,24.8L52.4,24.8z M60.7,24.8c0.3,0,0.5,0,0.7-0.1c0.2-0.1,0.4-0.2,0.6-0.3c0.2-0.1,0.3-0.3,0.4-0.4 c0.1-0.2,0.2-0.3,0.2-0.5c0.1-0.3,0-0.5-0.1-0.7c-0.1-0.2-0.2-0.4-0.4-0.6c-0.2-0.2-0.4-0.3-0.7-0.5c-0.3-0.1-0.5-0.3-0.8-0.4 c-0.3-0.1-0.6-0.3-0.8-0.5c-0.3-0.2-0.5-0.4-0.7-0.6c-0.2-0.2-0.3-0.5-0.4-0.8c-0.1-0.3-0.1-0.6,0-1c0.1-0.4,0.2-0.7,0.4-1 c0.2-0.3,0.5-0.6,0.8-0.8c0.3-0.2,0.7-0.4,1.1-0.5c0.4-0.1,0.8-0.2,1.3-0.2c0.3,0,0.6,0,0.8,0.1c0.3,0,0.5,0.1,0.7,0.2 c0.2,0.1,0.5,0.3,0.7,0.5c0.2,0.2,0.4,0.5,0.6,0.9l-0.8,0.6c-0.2-0.6-0.5-1-0.9-1.3c-0.4-0.3-0.8-0.4-1.3-0.4c-0.3,0-0.5,0-0.7,0.1 c-0.2,0.1-0.4,0.2-0.6,0.3c-0.2,0.1-0.3,0.2-0.4,0.4c-0.1,0.1-0.2,0.3-0.2,0.5c-0.1,0.3,0,0.5,0.1,0.7c0.1,0.2,0.3,0.4,0.5,0.6 c0.2,0.2,0.5,0.3,0.8,0.5c0.3,0.1,0.6,0.3,0.9,0.4c0.3,0.1,0.6,0.3,0.9,0.5c0.3,0.2,0.5,0.4,0.7,0.6c0.2,0.2,0.4,0.5,0.5,0.8 c0.1,0.3,0.1,0.6,0,1c-0.1,0.4-0.2,0.8-0.4,1.1c-0.2,0.3-0.5,0.6-0.8,0.9c-0.3,0.2-0.7,0.4-1.2,0.6c-0.5,0.1-1,0.2-1.6,0.2 c-0.3,0-0.5,0-0.8-0.1c-0.3,0-0.5-0.1-0.8-0.2c-0.3-0.1-0.5-0.3-0.8-0.5c-0.2-0.2-0.5-0.5-0.7-0.9l0.9-0.7c0.2,0.3,0.3,0.6,0.5,0.8 c0.2,0.2,0.3,0.4,0.5,0.5c0.2,0.1,0.4,0.2,0.6,0.3C60.2,24.8,60.5,24.8,60.7,24.8L60.7,24.8z M67.9,16.4l1.4-0.5h0.5L68,25.3h-1.8 L67.9,16.4L67.9,16.4z M73.2,24.8c0.3,0,0.5,0,0.7-0.1c0.2-0.1,0.4-0.2,0.6-0.3c0.2-0.1,0.3-0.3,0.4-0.4c0.1-0.2,0.2-0.3,0.2-0.5 c0.1-0.3,0-0.5-0.1-0.7c-0.1-0.2-0.2-0.4-0.4-0.6c-0.2-0.2-0.4-0.3-0.7-0.5c-0.3-0.1-0.5-0.3-0.8-0.4c-0.3-0.1-0.6-0.3-0.8-0.5 c-0.3-0.2-0.5-0.4-0.7-0.6c-0.2-0.2-0.3-0.5-0.4-0.8c-0.1-0.3-0.1-0.6,0-1c0.1-0.4,0.2-0.7,0.4-1c0.2-0.3,0.5-0.6,0.8-0.8 c0.3-0.2,0.7-0.4,1.1-0.5c0.4-0.1,0.8-0.2,1.3-0.2c0.3,0,0.6,0,0.8,0.1c0.3,0,0.5,0.1,0.7,0.2c0.2,0.1,0.5,0.3,0.7,0.5 c0.2,0.2,0.4,0.5,0.6,0.9L77,18.1c-0.2-0.6-0.5-1-0.9-1.3c-0.4-0.3-0.8-0.4-1.3-0.4c-0.3,0-0.5,0-0.7,0.1c-0.2,0.1-0.4,0.2-0.6,0.3 c-0.2,0.1-0.3,0.2-0.4,0.4c-0.1,0.1-0.2,0.3-0.2,0.5c-0.1,0.3,0,0.5,0.1,0.7c0.1,0.2,0.3,0.4,0.5,0.6c0.2,0.2,0.5,0.3,0.8,0.5 c0.3,0.1,0.6,0.3,0.9,0.4c0.3,0.1,0.6,0.3,0.9,0.5c0.3,0.2,0.5,0.4,0.7,0.6c0.2,0.2,0.4,0.5,0.5,0.8c0.1,0.3,0.1,0.6,0,1 c-0.1,0.4-0.2,0.8-0.4,1.1c-0.2,0.3-0.5,0.6-0.8,0.9c-0.3,0.2-0.7,0.4-1.2,0.6c-0.5,0.1-1,0.2-1.6,0.2c-0.3,0-0.5,0-0.8-0.1 c-0.3,0-0.5-0.1-0.8-0.2c-0.3-0.1-0.5-0.3-0.8-0.5c-0.2-0.2-0.5-0.5-0.7-0.9l0.9-0.7c0.2,0.3,0.3,0.6,0.5,0.8 c0.2,0.2,0.3,0.4,0.5,0.5c0.2,0.1,0.4,0.2,0.6,0.3C72.7,24.8,73,24.8,73.2,24.8L73.2,24.8z M83.7,24.1c-0.3,0.4-0.7,0.8-1.2,1 c-0.5,0.2-1,0.4-1.6,0.4c-0.3,0-0.6-0.1-0.8-0.2c-0.2-0.1-0.4-0.2-0.5-0.4c-0.1-0.2-0.2-0.4-0.2-0.7c0-0.3,0-0.6,0.1-0.9l1.3-6.5 h-1.6l0.1-0.5c0.5,0,1-0.1,1.3-0.3c0.4-0.2,0.7-0.4,1-0.8c0.3-0.3,0.5-0.7,0.7-1.1c0.2-0.4,0.4-0.9,0.6-1.3h0.5L82.8,16h2.1 l-0.2,0.8h-2.1l-1.3,6.5c0,0.1,0,0.3,0,0.4c0,0.1,0.1,0.2,0.1,0.3c0.1,0.1,0.2,0.2,0.3,0.2c0.1,0.1,0.2,0.1,0.4,0.1 c0.2,0,0.4-0.1,0.6-0.2c0.2-0.1,0.4-0.2,0.5-0.4L83.7,24.1z"/><path fill-rule="evenodd" clip-rule="evenodd" fill="#006B35" d="M69.5,13L69.5,13c0.1,0,0.3,0,0.4,0.1c0.1,0,0.2,0.1,0.3,0.2c0.1,0.1,0.1,0.2,0.2,0.3c0,0.1,0,0.2,0,0.4 c0,0.1-0.1,0.2-0.2,0.4c-0.1,0.1-0.2,0.2-0.3,0.3c-0.1,0.1-0.2,0.1-0.4,0.2c-0.1,0-0.3,0.1-0.4,0.1c-0.1,0-0.3,0-0.4-0.1 c-0.1,0-0.2-0.1-0.3-0.2c-0.1-0.1-0.1-0.2-0.2-0.3c0-0.1,0-0.2,0-0.4c0-0.1,0.1-0.2,0.2-0.4c0.1-0.1,0.2-0.2,0.3-0.3 c0.1-0.1,0.2-0.1,0.4-0.2C69.2,13,69.3,13,69.5,13z"/><path fill-rule="evenodd" clip-rule="evenodd" fill="#006B35" d="M47,25h-1.8l0.2-1.3c-0.3,0.2-0.5,0.3-0.7,0.5c-0.2,0.2-0.5,0.3-0.8,0.5c-0.3,0.1-0.6,0.3-0.9,0.3 c-0.3,0.1-0.7,0.1-1.1,0.1c-0.4,0-0.7-0.1-0.9-0.2c-0.3-0.1-0.5-0.3-0.7-0.5c-0.2-0.2-0.3-0.5-0.3-0.7c-0.1-0.3-0.1-0.6,0-0.9 c0.1-0.4,0.2-0.8,0.4-1.1c0.2-0.3,0.5-0.6,0.8-0.9c0.3-0.3,0.7-0.5,1.1-0.7c0.4-0.2,0.8-0.4,1.3-0.5c0.4-0.2,0.9-0.3,1.3-0.4 c0.5-0.1,0.9-0.2,1.3-0.3l0.1-0.6c0.1-0.4,0.1-0.8,0.1-1.1c0-0.3-0.1-0.5-0.2-0.7c-0.1-0.2-0.3-0.3-0.5-0.4 c-0.2-0.1-0.4-0.1-0.7-0.1c-0.3,0-0.6,0-0.8,0.1c-0.2,0.1-0.4,0.2-0.5,0.3c-0.1,0.1-0.2,0.3-0.3,0.5c-0.1,0.2-0.1,0.3-0.2,0.5 c0,0.2-0.1,0.3-0.1,0.5c-0.1,0.1-0.1,0.3-0.2,0.4c-0.1,0.1-0.2,0.2-0.3,0.3c-0.1,0.1-0.3,0.1-0.5,0.1c-0.1,0-0.3,0-0.4-0.1 c-0.1-0.1-0.2-0.1-0.3-0.2c-0.1-0.1-0.1-0.2-0.1-0.3c0-0.1,0-0.3,0-0.4c0.1-0.3,0.2-0.6,0.5-0.9c0.3-0.3,0.6-0.5,0.9-0.7 c0.4-0.2,0.8-0.3,1.3-0.5c0.5-0.1,1-0.2,1.5-0.2c0.6,0,1.1,0.1,1.5,0.2c0.4,0.1,0.7,0.3,0.9,0.5c0.2,0.2,0.4,0.5,0.4,0.8 c0.1,0.3,0,0.6,0,1L47,25L47,25z M46.2,19.6L46.2,19.6c-0.3,0.1-0.6,0.2-0.9,0.3c-0.3,0.1-0.6,0.2-0.9,0.4 c-0.3,0.1-0.6,0.3-0.9,0.4c-0.3,0.2-0.5,0.3-0.7,0.5c-0.2,0.2-0.4,0.4-0.6,0.6C42.1,22,42,22.2,42,22.4c0,0.2,0,0.4,0,0.6 c0,0.2,0.1,0.4,0.2,0.5c0.1,0.2,0.2,0.3,0.4,0.4c0.2,0.1,0.3,0.1,0.5,0.1c0.2,0,0.4,0,0.6-0.1c0.2-0.1,0.4-0.1,0.6-0.2 c0.2-0.1,0.4-0.2,0.6-0.3c0.2-0.1,0.4-0.3,0.6-0.4L46.2,19.6L46.2,19.6z M52.5,24.6c0.3,0,0.5,0,0.7-0.1c0.2-0.1,0.4-0.2,0.6-0.3 c0.2-0.1,0.3-0.3,0.4-0.4c0.1-0.2,0.2-0.3,0.2-0.5c0.1-0.3,0-0.5-0.1-0.7c-0.1-0.2-0.2-0.4-0.4-0.6c-0.2-0.2-0.4-0.3-0.7-0.5 c-0.3-0.1-0.5-0.3-0.8-0.4c-0.3-0.1-0.6-0.3-0.8-0.5c-0.3-0.2-0.5-0.4-0.7-0.6c-0.2-0.2-0.3-0.5-0.4-0.8c-0.1-0.3-0.1-0.6,0-1 c0.1-0.4,0.2-0.7,0.4-1c0.2-0.3,0.5-0.6,0.8-0.8c0.3-0.2,0.7-0.4,1.1-0.5c0.4-0.1,0.8-0.2,1.3-0.2c0.3,0,0.6,0,0.8,0.1 c0.3,0,0.5,0.1,0.7,0.2c0.2,0.1,0.5,0.3,0.7,0.5c0.2,0.2,0.4,0.5,0.6,0.9l-0.8,0.6c-0.2-0.6-0.5-1-0.9-1.3 c-0.4-0.3-0.8-0.4-1.3-0.4c-0.3,0-0.5,0-0.7,0.1c-0.2,0.1-0.4,0.2-0.6,0.3c-0.2,0.1-0.3,0.2-0.4,0.4c-0.1,0.1-0.2,0.3-0.2,0.5 c-0.1,0.3,0,0.5,0.1,0.7c0.1,0.2,0.3,0.4,0.5,0.6c0.2,0.2,0.5,0.3,0.8,0.5c0.3,0.1,0.6,0.3,0.9,0.4c0.3,0.1,0.6,0.3,0.9,0.5 c0.3,0.2,0.5,0.4,0.7,0.6c0.2,0.2,0.4,0.5,0.5,0.8c0.1,0.3,0.1,0.6,0,1c-0.1,0.4-0.2,0.8-0.4,1.1c-0.2,0.3-0.5,0.6-0.8,0.9 c-0.3,0.2-0.7,0.4-1.2,0.6c-0.5,0.1-1,0.2-1.6,0.2c-0.3,0-0.5,0-0.8-0.1c-0.3,0-0.5-0.1-0.8-0.2c-0.3-0.1-0.5-0.3-0.8-0.5 c-0.2-0.2-0.5-0.5-0.7-0.9l0.9-0.7c0.2,0.3,0.3,0.6,0.5,0.8c0.2,0.2,0.3,0.4,0.5,0.5c0.2,0.1,0.4,0.2,0.6,0.3 C52,24.6,52.3,24.6,52.5,24.6L52.5,24.6z M60.9,24.6c0.3,0,0.5,0,0.7-0.1c0.2-0.1,0.4-0.2,0.6-0.3c0.2-0.1,0.3-0.3,0.4-0.4 c0.1-0.2,0.2-0.3,0.2-0.5c0.1-0.3,0-0.5-0.1-0.7c-0.1-0.2-0.2-0.4-0.4-0.6c-0.2-0.2-0.4-0.3-0.7-0.5c-0.3-0.1-0.5-0.3-0.8-0.4 c-0.3-0.1-0.6-0.3-0.8-0.5c-0.3-0.2-0.5-0.4-0.7-0.6c-0.2-0.2-0.3-0.5-0.4-0.8c-0.1-0.3-0.1-0.6,0-1c0.1-0.4,0.2-0.7,0.4-1 c0.2-0.3,0.5-0.6,0.8-0.8c0.3-0.2,0.7-0.4,1.1-0.5c0.4-0.1,0.8-0.2,1.3-0.2c0.3,0,0.6,0,0.8,0.1c0.3,0,0.5,0.1,0.7,0.2 c0.2,0.1,0.5,0.3,0.7,0.5c0.2,0.2,0.4,0.5,0.6,0.9l-0.8,0.6c-0.2-0.6-0.5-1-0.9-1.3c-0.4-0.3-0.8-0.4-1.3-0.4c-0.3,0-0.5,0-0.7,0.1 c-0.2,0.1-0.4,0.2-0.6,0.3c-0.2,0.1-0.3,0.2-0.4,0.4c-0.1,0.1-0.2,0.3-0.2,0.5c-0.1,0.3,0,0.5,0.1,0.7c0.1,0.2,0.3,0.4,0.5,0.6 c0.2,0.2,0.5,0.3,0.8,0.5c0.3,0.1,0.6,0.3,0.9,0.4c0.3,0.1,0.6,0.3,0.9,0.5c0.3,0.2,0.5,0.4,0.7,0.6c0.2,0.2,0.4,0.5,0.5,0.8 c0.1,0.3,0.1,0.6,0,1c-0.1,0.4-0.2,0.8-0.4,1.1c-0.2,0.3-0.5,0.6-0.8,0.9c-0.3,0.2-0.7,0.4-1.2,0.6c-0.5,0.1-1,0.2-1.6,0.2 c-0.3,0-0.5,0-0.8-0.1c-0.3,0-0.5-0.1-0.8-0.2c-0.3-0.1-0.5-0.3-0.8-0.5c-0.2-0.2-0.5-0.5-0.7-0.9l0.9-0.7c0.2,0.3,0.3,0.6,0.5,0.8 c0.2,0.2,0.3,0.4,0.5,0.5c0.2,0.1,0.4,0.2,0.6,0.3C60.4,24.6,60.6,24.6,60.9,24.6L60.9,24.6z M68,16.1l1.4-0.5h0.5L68.1,25h-1.8 L68,16.1L68,16.1z M73.4,24.6c0.3,0,0.5,0,0.7-0.1c0.2-0.1,0.4-0.2,0.6-0.3c0.2-0.1,0.3-0.3,0.4-0.4c0.1-0.2,0.2-0.3,0.2-0.5 c0.1-0.3,0-0.5-0.1-0.7c-0.1-0.2-0.2-0.4-0.4-0.6c-0.2-0.2-0.4-0.3-0.7-0.5c-0.3-0.1-0.5-0.3-0.8-0.4c-0.3-0.1-0.6-0.3-0.8-0.5 c-0.3-0.2-0.5-0.4-0.7-0.6c-0.2-0.2-0.3-0.5-0.4-0.8c-0.1-0.3-0.1-0.6,0-1c0.1-0.4,0.2-0.7,0.4-1c0.2-0.3,0.5-0.6,0.8-0.8 c0.3-0.2,0.7-0.4,1.1-0.5c0.4-0.1,0.8-0.2,1.3-0.2c0.3,0,0.6,0,0.8,0.1c0.3,0,0.5,0.1,0.7,0.2c0.2,0.1,0.5,0.3,0.7,0.5 c0.2,0.2,0.4,0.5,0.6,0.9l-0.8,0.6c-0.2-0.6-0.5-1-0.9-1.3c-0.4-0.3-0.8-0.4-1.3-0.4c-0.3,0-0.5,0-0.7,0.1 c-0.2,0.1-0.4,0.2-0.6,0.3c-0.2,0.1-0.3,0.2-0.4,0.4c-0.1,0.1-0.2,0.3-0.2,0.5c-0.1,0.3,0,0.5,0.1,0.7c0.1,0.2,0.3,0.4,0.5,0.6 c0.2,0.2,0.5,0.3,0.8,0.5c0.3,0.1,0.6,0.3,0.9,0.4c0.3,0.1,0.6,0.3,0.9,0.5c0.3,0.2,0.5,0.4,0.7,0.6c0.2,0.2,0.4,0.5,0.5,0.8 c0.1,0.3,0.1,0.6,0,1c-0.1,0.4-0.2,0.8-0.4,1.1c-0.2,0.3-0.5,0.6-0.8,0.9c-0.3,0.2-0.7,0.4-1.2,0.6c-0.5,0.1-1,0.2-1.6,0.2 c-0.3,0-0.5,0-0.8-0.1c-0.3,0-0.5-0.1-0.8-0.2c-0.3-0.1-0.5-0.3-0.8-0.5c-0.2-0.2-0.5-0.5-0.7-0.9l0.9-0.7c0.2,0.3,0.3,0.6,0.5,0.8 c0.2,0.2,0.3,0.4,0.5,0.5c0.2,0.1,0.4,0.2,0.6,0.3C72.9,24.6,73.1,24.6,73.4,24.6L73.4,24.6z M83.8,23.8c-0.3,0.4-0.7,0.8-1.2,1 c-0.5,0.2-1,0.4-1.6,0.4c-0.3,0-0.6-0.1-0.8-0.2c-0.2-0.1-0.4-0.2-0.5-0.4c-0.1-0.2-0.2-0.4-0.2-0.7c0-0.3,0-0.6,0.1-0.9l1.3-6.5 h-1.6l0.1-0.5c0.5,0,1-0.1,1.3-0.3c0.4-0.2,0.7-0.4,1-0.8c0.3-0.3,0.5-0.7,0.7-1.1c0.2-0.4,0.4-0.9,0.6-1.3h0.5l-0.6,3.2H85 l-0.2,0.8h-2.1l-1.3,6.5c0,0.1,0,0.3,0,0.4c0,0.1,0.1,0.2,0.2,0.3c0.1,0.1,0.2,0.2,0.3,0.2c0.1,0.1,0.2,0.1,0.4,0.1 c0.2,0,0.4-0.1,0.6-0.2c0.2-0.1,0.4-0.2,0.5-0.4L83.8,23.8L83.8,23.8z M19.9,4.7L19.9,4.7c7.2,0,13.2,5.1,14.7,11.9 c1.8-0.6,4-1.4,5.2-2.9C29.2,30.9,15,8.2,1.2,19.6c1.5-1.9,2.9-3.6,4.5-4.5C7.7,9,13.3,4.7,19.9,4.7L19.9,4.7z M31.1,17.2 c-1.2-5.1-5.8-8.9-11.2-8.9c-4,0-7.5,2.1-9.6,5.2C19,12.9,24,18.2,31.1,17.2L31.1,17.2L31.1,17.2z M19.9,35.3 c6.6,0,12.3-4.3,14.3-10.4c1.5-0.9,2.9-2.6,4.5-4.5C24.8,31.8,10.6,9.1,0,26.3c1.2-1.5,3.4-2.4,5.2-2.9 C6.7,30.2,12.8,35.3,19.9,35.3L19.9,35.3L19.9,35.3z M8.7,22.8c1.2,5.1,5.8,8.9,11.2,8.9c4,0,7.5-2.1,9.6-5.2 C20.9,27.1,15.9,21.8,8.7,22.8L8.7,22.8L8.7,22.8z M5.1,15.9c7.1-3.8,14,1.7,21.7,2.3C17.7,16.4,12,11.5,5.1,15.9L5.1,15.9z M4.1,22c7.1-3.8,14,1.7,21.7,2.3C16.7,22.6,11,17.6,4.1,22L4.1,22z M15,32.4c5.3,2,13.2,1.4,16.1-5.9C26.8,33.3,21.2,33.3,15,32.4 L15,32.4z M24.7,6.6c-5.3-2-13.3-0.9-16.2,6.3C12.9,6.1,18.6,5.7,24.7,6.6L24.7,6.6z M69.6,12.6L69.6,12.6c0.1,0,0.3,0,0.4,0.1 c0.1,0,0.2,0.1,0.3,0.2c0.1,0.1,0.1,0.2,0.2,0.3c0,0.1,0,0.2,0,0.4c0,0.1-0.1,0.2-0.2,0.4c-0.1,0.1-0.2,0.2-0.3,0.3 c-0.1,0.1-0.2,0.1-0.4,0.2c-0.1,0-0.3,0.1-0.4,0.1c-0.1,0-0.3,0-0.4-0.1c-0.1,0-0.2-0.1-0.3-0.2c-0.1-0.1-0.1-0.2-0.2-0.3 c0-0.1,0-0.2,0-0.4c0-0.1,0.1-0.2,0.2-0.4c0.1-0.1,0.2-0.2,0.3-0.3c0.1-0.1,0.2-0.1,0.4-0.2C69.3,12.7,69.5,12.6,69.6,12.6z"/><path fill-rule="evenodd" clip-rule="evenodd" fill="#CE2821" d="M30.8,26.3C20,28,16.1,20.4,5.7,23.3c-1.6,0.5-4.3,1.4-5.6,2.9c10.7-17.4,24.8,6,38.7-6.1 C37.3,23.3,34.4,25.6,30.8,26.3L30.8,26.3z M14.4,21c-3.3-1-5.8-1.2-9.3,0.6c6.7-2.8,13.4,2,20.4,2.8C19.7,23.2,18.3,22.2,14.4,21z"/></svg>