<svg version="1.1" xmlns="http://www.w3.org/2000/svg" xmlns:xlink="http://www.w3.org/1999/xlink" width="24" height="24" viewBox="0,0,256,256"><g fill="#ffffff" fill-rule="evenodd" stroke="none" stroke-width="1" stroke-linecap="butt" stroke-linejoin="miter" stroke-miterlimit="10" stroke-dasharray="" stroke-dashoffset="0" font-family="none" font-weight="none" font-size="none" text-anchor="none" style="mix-blend-mode: normal"><g transform="translate(259.74676,255.97043) rotate(-180) scale(10.66667,10.66667)"><g id="Frame 1429"><path d="M13.7929,17.7071c0.3905,0.3905 1.0237,0.3905 1.4142,0l5,-5c0.3905,-0.3905 0.3905,-1.0237 0,-1.4142l-5,-5.00001c-0.3905,-0.39052 -1.0237,-0.39052 -1.4142,0c-0.3905,0.39053 -0.3905,1.02369 0,1.41422l3.2929,3.29289h-14.0858c-0.55228,0 -1,0.4477 -1,1c0,0.5523 0.44772,1 1,1h14.0858l-3.2929,3.2929c-0.3905,0.3905 -0.3905,1.0237 0,1.4142z" id="Vector 1 (Stroke)"></path></g></g></g></svg>