<svg version="1.1" xmlns="http://www.w3.org/2000/svg" xmlns:xlink="http://www.w3.org/1999/xlink" width="24" height="24" viewBox="0,0,256,256"><g fill="#27272a" fill-rule="nonzero" stroke="none" stroke-width="1" stroke-linecap="butt" stroke-linejoin="miter" stroke-miterlimit="10" stroke-dasharray="" stroke-dashoffset="0" font-family="none" font-weight="none" font-size="none" text-anchor="none" style="mix-blend-mode: normal"><g transform="translate(-0.00533,-0.00098) scale(10.66667,10.66667)"><path d="M13.162,18.994c0.609,0 0.858,-0.406 0.851,-0.915c-0.031,-1.917 0.714,-2.949 2.059,-1.604c1.488,1.488 1.796,2.519 3.603,2.519h3.2c0.808,0 1.126,-0.26 1.126,-0.668c0,-0.863 -1.421,-2.386 -2.625,-3.504c-1.686,-1.565 -1.765,-1.602 -0.313,-3.486c1.801,-2.339 4.157,-5.336 2.073,-5.336h-3.981c-0.772,0 -0.828,0.435 -1.103,1.083c-0.995,2.347 -2.886,5.387 -3.604,4.922c-0.751,-0.485 -0.407,-2.406 -0.35,-5.261c0.015,-0.754 0.011,-1.271 -1.141,-1.539c-0.629,-0.145 -1.241,-0.205 -1.809,-0.205c-2.273,0 -3.841,0.953 -2.95,1.119c1.571,0.293 1.42,3.692 1.054,5.16c-0.638,2.556 -3.036,-2.024 -4.035,-4.305c-0.241,-0.548 -0.315,-0.974 -1.175,-0.974h-3.255c-0.492,0 -0.787,0.16 -0.787,0.516c0,0.602 2.96,6.72 5.786,9.77c2.756,2.975 5.48,2.708 7.376,2.708z"></path></g></g></svg>