<svg version="1.1" xmlns="http://www.w3.org/2000/svg" xmlns:xlink="http://www.w3.org/1999/xlink" width="24" height="24" viewBox="0,0,256,256"><g fill-opacity="0.8" fill="#ffffff" fill-rule="nonzero" stroke="none" stroke-width="1" stroke-linecap="butt" stroke-linejoin="miter" stroke-miterlimit="10" stroke-dasharray="" stroke-dashoffset="0" font-family="none" font-weight="none" font-size="none" text-anchor="none" style="mix-blend-mode: normal"><g transform="translate(-0.0744,-0.24533) scale(10.66667,10.66667)"><path d="M12.002,21.041c-2.46005,0 -2.75005,-0.013 -3.71005,-0.055c-0.74863,-0.0246 -1.48757,-0.1768 -2.185,-0.45c-0.59682,-0.2323 -1.13882,-0.5861 -1.59158,-1.039c-0.45276,-0.453 -0.80638,-0.9951 -1.03842,-1.592c-0.26269,-0.7 -0.40438,-1.4395 -0.419,-2.187c-0.056,-0.958 -0.056,-1.272 -0.056,-3.713c0,-2.467 0.013,-2.755 0.056,-3.71c0.01494,-0.74647 0.15662,-1.48499 0.419,-2.184c0.23177,-0.59766 0.58563,-1.14042 1.039,-1.59361c0.45336,-0.45319 0.99625,-0.80684 1.594,-1.03839c0.69865,-0.26379 1.43735,-0.40585 2.184,-0.42c0.955,-0.054 1.269,-0.054 3.70805,-0.054c2.48,0 2.765,0.013 3.71,0.054c0.748,0.014 1.49,0.156 2.19,0.42c0.5975,0.23181 1.1403,0.58557 1.5936,1.03872c0.4534,0.45316 0.8073,0.99578 1.0394,1.59328c0.267,0.71 0.41,1.46 0.421,2.217c0.056,0.95801 0.056,1.271 0.056,3.711c0,2.44 -0.014,2.76 -0.056,3.707c-0.015,0.7482 -0.157,1.4884 -0.42,2.189c-0.2327,0.5973 -0.587,1.1398 -1.0404,1.5929c-0.4534,0.4531 -0.9961,0.8069 -1.5936,1.0391c-0.7,0.262 -1.439,0.404 -2.186,0.419c-0.955,0.055 -1.268,0.055 -3.714,0.055zM11.968,4.588c-2.44605,0 -2.70005,0.012 -3.65505,0.055c-0.57035,0.00746 -1.1352,0.11265 -1.67,0.311c-0.39007,0.14952 -0.74448,0.37911 -1.04038,0.67399c-0.2959,0.29487 -0.52674,0.64847 -0.67762,1.03801c-0.2,0.54 -0.305,1.111 -0.311,1.687c-0.053,0.969 -0.053,1.223 -0.053,3.652c0,2.4 0.009,2.691 0.053,3.654c0.009,0.57 0.114,1.135 0.311,1.67c0.306,0.787 0.93,1.409 1.719,1.711c0.53411,0.1996 1.09885,0.3048 1.669,0.311c0.968,0.056 1.223,0.056 3.65505,0.056c2.453,0 2.707,-0.012 3.654,-0.056c0.5704,-0.0069 1.1353,-0.1121 1.67,-0.311c0.3879,-0.1507 0.7403,-0.3804 1.0347,-0.6746c0.2944,-0.2942 0.5244,-0.6465 0.6753,-1.0344c0.2,-0.54 0.305,-1.112 0.311,-1.688h0.011c0.043,-0.956 0.043,-1.211 0.043,-3.654c0,-2.44299 -0.011,-2.7 -0.054,-3.655c-0.0091,-0.56954 -0.1142,-1.13346 -0.311,-1.668c-0.1506,-0.38845 -0.3804,-0.74129 -0.6748,-1.03605c-0.2944,-0.29475 -0.647,-0.52495 -1.0352,-0.67595c-0.535,-0.2 -1.1,-0.304 -1.67,-0.311c-0.967,-0.055 -1.22,-0.055 -3.654,-0.055zM12.002,16.624c-0.9145,0.0006 -1.8085,-0.27 -2.56916,-0.7776c-0.76062,-0.5076 -1.35363,-1.2293 -1.70402,-2.0739c-0.3504,-0.8447 -0.44244,-1.7742 -0.26448,-2.6712c0.17796,-0.8969 0.61793,-1.72096 1.26424,-2.36783c0.64632,-0.64688 1.46992,-1.08756 2.36672,-1.26629c0.8968,-0.17874 1.8265,-0.08751 2.6714,0.26216c0.8449,0.34966 1.5672,0.94204 2.0754,1.70222c0.5083,0.76014 0.7797,1.65404 0.7799,2.56844c-0.0016,1.2252 -0.4888,2.3998 -1.3547,3.2665c-0.866,0.8667 -2.0402,1.3549 -3.2653,1.3575zM12.002,8.998c-0.5934,0 -1.1734,0.17595 -1.6668,0.5056c-0.49331,0.32964 -0.87782,0.7982 -1.10489,1.3464c-0.22706,0.5481 -0.28647,1.1513 -0.17071,1.7333c0.11575,0.5819 0.40148,1.1165 0.82103,1.536c0.41957,0.4196 0.95407,0.7053 1.53607,0.8211c0.5819,0.1157 1.1851,0.0563 1.7333,-0.1708c0.5482,-0.227 1.0167,-0.6115 1.3464,-1.1049c0.3296,-0.4933 0.5056,-1.0734 0.5056,-1.6667c-0.0019,-0.7951 -0.3186,-1.5571 -0.8808,-2.11927c-0.5622,-0.56221 -1.3242,-0.87888 -2.1192,-0.88073zM16.802,8.285c-0.1416,-0.00052 -0.2817,-0.02892 -0.4123,-0.08358c-0.1306,-0.05466 -0.2491,-0.13451 -0.3488,-0.23498c-0.2015,-0.20292 -0.314,-0.47753 -0.3129,-0.76344c0.001,-0.2859 0.1156,-0.55967 0.3185,-0.76108c0.2029,-0.20142 0.4775,-0.31398 0.7635,-0.31292c0.2859,0.00107 0.5596,0.11566 0.761,0.31857c0.2015,0.20292 0.314,0.47753 0.313,0.76343c-0.0011,0.28591 -0.1157,0.55968 -0.3186,0.76109c-0.2029,0.20142 -0.4775,0.31398 -0.7634,0.31291z"></path></g></g></svg>