<?xml version="1.0" encoding="utf-8"?>
<!-- Generator: Adobe Illustrator 22.1.0, SVG Export Plug-In . SVG Version: 6.00 Build 0)  -->
<svg version="1.1" id="Слой_1" xmlns="http://www.w3.org/2000/svg" xmlns:xlink="http://www.w3.org/1999/xlink" x="0px" y="0px"
	 width="38px" height="24px" viewBox="0 0 38 24" style="enable-background:new 0 0 38 24;" xml:space="preserve">
<style type="text/css">
	.st0{fill:#D10429;}
	.st1{fill:#022E64;}
	.st2{fill:#076F74;}
	.st3{fill:#FEFEFE;}
</style>
<g id="Logos_1_">
	<g id="Payment-logos" transform="translate(-307.000000, -714.000000)">
		<g id="Logos" transform="translate(288.000000, 322.000000)">
			<g id="logos-_x2F_-card-types-_x2F_-Unionpay-_x2F_-24" transform="translate(0.000000, 392.000000)">
				<g id="Unionpay" transform="translate(19.000000, 0.000000)">
					<path id="path8" class="st0" d="M7.4,0h9.5c1.3,0,2.1,1.1,1.8,2.4l-4.4,19.1c-0.3,1.3-1.6,2.4-3,2.4H1.9
						c-1.3,0-2.2-1.1-1.8-2.4L4.5,2.4C4.8,1.1,6.1,0,7.4,0L7.4,0z"/>
					<path id="path10" class="st1" d="M16.1,0H27c1.3,0,0.7,1.1,0.4,2.4L23,21.6c-0.3,1.3-0.2,2.4-1.5,2.4H10.6
						c-1.3,0-2.2-1.1-1.8-2.4l4.4-19.1C13.5,1.1,14.8,0,16.1,0L16.1,0z"/>
					<path id="path12" class="st2" d="M26.6,0h9.5c1.3,0,2.1,1.1,1.8,2.4l-4.4,19.1c-0.3,1.3-1.6,2.4-3,2.4h-9.5
						c-1.3,0-2.1-1.1-1.8-2.4l4.4-19.1C24,1.1,25.3,0,26.6,0L26.6,0z"/>
					<path id="path14" class="st3" d="M25,18h0.9l0.3-0.9h-0.9L25,18L25,18z M25.7,15.7l-0.3,1c0,0,0.3-0.2,0.5-0.2
						c0.2,0,0.5-0.1,0.5-0.1l0.2-0.7L25.7,15.7L25.7,15.7L25.7,15.7z M26.2,14.2l-0.3,1c0,0,0.3-0.2,0.5-0.2c0.2,0,0.5-0.1,0.5-0.1
						l0.2-0.7L26.2,14.2L26.2,14.2L26.2,14.2z M28.2,14.2L27,18h0.3l-0.2,0.8h-0.3l-0.1,0.2h-1.1l0.1-0.2h-2.2l0.2-0.7h0.2l1.2-3.9
						l0.2-0.8h1.1l-0.1,0.4c0,0,0.3-0.2,0.6-0.3c0.3-0.1,1.9-0.1,1.9-0.1l-0.2,0.8L28.2,14.2L28.2,14.2L28.2,14.2z"/>
					<path id="path16" class="st3" d="M28.6,13.4h1.2l0,0.5c0,0.1,0.1,0.1,0.2,0.1h0.2l-0.2,0.7h-0.6c-0.6,0-0.8-0.2-0.8-0.5
						L28.6,13.4L28.6,13.4z M28.8,16.9h-1.1l0.2-0.7h1.3l0.2-0.6H28l0.2-0.7h3.6l-0.2,0.7h-1.2l-0.2,0.6h1.2l-0.2,0.7h-1.3l-0.2,0.3
						h0.5l0.1,0.8c0,0.1,0,0.1,0,0.2c0,0,0.2,0,0.3,0h0.2l-0.2,0.8h-0.4c-0.1,0-0.2,0-0.3,0c-0.1,0-0.2-0.1-0.3-0.1
						c-0.1,0-0.2-0.1-0.2-0.3l-0.1-0.8l-0.6,0.8c-0.2,0.3-0.4,0.5-0.9,0.5H27l0.2-0.7h0.3c0.1,0,0.2,0,0.2-0.1
						c0.1,0,0.1-0.1,0.2-0.1L28.8,16.9L28.8,16.9z M16.3,15.1h3l-0.2,0.7h-1.2l-0.2,0.6h1.2l-0.2,0.8h-1.2l-0.3,1
						c0,0.1,0.3,0.1,0.4,0.1l0.6-0.1l-0.2,0.8h-1.4c-0.1,0-0.2,0-0.3,0c-0.1,0-0.2-0.1-0.2-0.2c0-0.1-0.1-0.1-0.1-0.3l0.4-1.3h-0.7
						l0.2-0.8h0.7l0.2-0.6h-0.7L16.3,15.1L16.3,15.1L16.3,15.1z M18.4,13.8h1.2l-0.2,0.8h-1.7l-0.2,0.2c-0.1,0.1-0.1,0-0.2,0.1
						c-0.1,0-0.3,0.1-0.6,0.1h-0.5l0.2-0.7h0.2c0.1,0,0.2,0,0.3,0c0.1,0,0.1-0.1,0.2-0.2l0.3-0.6h1.2L18.4,13.8L18.4,13.8L18.4,13.8
						z M20.7,15c0,0,0.3-0.3,0.9-0.4c0.1,0,1,0,1,0l0.1-0.4H21L20.7,15L20.7,15L20.7,15z M22.3,15.4h-1.7l-0.1,0.4H22
						c0.2,0,0.2,0,0.2,0L22.3,15.4L22.3,15.4L22.3,15.4z M20.1,13.4h1.1L21,13.9c0,0,0.3-0.3,0.6-0.4c0.2-0.1,0.8-0.2,0.8-0.2l1.7,0
						l-0.6,2c-0.1,0.3-0.2,0.5-0.3,0.7c-0.1,0.1-0.1,0.2-0.3,0.3c-0.1,0.1-0.3,0.1-0.4,0.1c-0.1,0-0.3,0-0.5,0h-1.6L19.8,18
						c0,0.2-0.1,0.2,0,0.3c0,0,0.1,0.1,0.2,0.1l0.7-0.1l-0.2,0.8h-0.8c-0.3,0-0.4,0-0.6,0c-0.1,0-0.3,0-0.3-0.1
						c-0.1-0.1-0.2-0.2-0.2-0.3c0-0.1,0-0.2,0.1-0.4L20.1,13.4L20.1,13.4z"/>
					<path id="path18" class="st3" d="M23.2,16.5L23.1,17c0,0.1-0.1,0.3-0.2,0.4c-0.1,0.1-0.2,0.2-0.6,0.2l-0.6,0l0,0.5
						c0,0.1,0,0.1,0.1,0.2c0,0,0,0,0.1,0l0.2,0l0.6,0L22.4,19h-0.6c-0.4,0-0.8,0-0.9-0.1c-0.1-0.1-0.1-0.2-0.1-0.3l0-2.1h1l0,0.4H22
						c0.1,0,0.1,0,0.2,0c0,0,0.1-0.1,0.1-0.1l0.1-0.3L23.2,16.5L23.2,16.5L23.2,16.5z M8.6,6.1c0,0.2-0.7,3.2-0.7,3.2
						c-0.1,0.6-0.2,1.1-0.6,1.3C7.1,10.9,6.8,11,6.6,11c-0.4,0-0.7-0.2-0.7-0.6l0-0.1c0,0,0.1-0.8,0.1-0.8c0,0,0.7-2.8,0.8-3.2
						c0,0,0,0,0,0c-1.3,0-1.6,0-1.6,0c0,0,0,0.2,0,0.2L4.4,9.5L4.4,9.7l-0.1,0.9c0,0.3,0,0.5,0.2,0.6c0.3,0.6,1.2,0.7,1.8,0.7
						c0.7,0,1.3-0.1,1.7-0.4c0.7-0.4,0.9-1.1,1.1-1.7l0.1-0.3c0,0,0.7-2.9,0.8-3.3c0,0,0,0,0,0C8.9,6.2,8.7,6.2,8.6,6.1L8.6,6.1
						L8.6,6.1z M12.5,11.9c-0.5,0-0.6,0-1.2,0l0,0c0-0.2,0.1-0.4,0.1-0.6l0.1-0.3c0.1-0.5,0.2-1,0.2-1.1c0-0.1,0-0.3-0.2-0.3
						c-0.1,0-0.2,0.1-0.4,0.1c-0.1,0.2-0.2,0.9-0.3,1.2c-0.1,0.7-0.1,0.7-0.2,1.1l0,0c-0.5,0-0.7,0-1.2,0l0,0
						c0.1-0.4,0.2-0.8,0.3-1.2c0.2-1.1,0.3-1.5,0.4-2l0,0c0.6-0.1,0.7-0.1,1.3-0.2l0,0.1l-0.1,0.3c0.1-0.1,0.2-0.1,0.3-0.2
						c0.3-0.1,0.6-0.2,0.8-0.2c0.3,0,0.6,0.1,0.7,0.4c0.1,0.3,0,0.6-0.1,1.3l-0.1,0.3C12.6,11.2,12.6,11.3,12.5,11.9L12.5,11.9
						L12.5,11.9L12.5,11.9z M14.4,11.9c-0.3,0-0.5,0-0.7,0c-0.2,0-0.4,0-0.6,0l0,0l0,0c0.1-0.3,0.1-0.4,0.2-0.5
						c0-0.1,0.1-0.2,0.1-0.5c0.1-0.4,0.1-0.6,0.2-0.9c0-0.2,0.1-0.4,0.1-0.6l0,0l0,0c0.3,0,0.5-0.1,0.7-0.1c0.2,0,0.4-0.1,0.7-0.1
						l0,0l0,0l-0.2,0.7c-0.1,0.2-0.1,0.5-0.2,0.7c-0.1,0.5-0.2,0.7-0.2,0.8C14.5,11.5,14.5,11.6,14.4,11.9L14.4,11.9L14.4,11.9
						L14.4,11.9L14.4,11.9z M17.5,10.2c0,0.1-0.1,0.6-0.3,0.8c-0.1,0.1-0.2,0.2-0.4,0.2c0,0-0.3,0-0.3-0.4c0-0.2,0-0.4,0.1-0.5
						c0.1-0.6,0.3-1,0.7-1C17.6,9.3,17.6,9.6,17.5,10.2L17.5,10.2z M18.7,10.2c0.2-0.7,0-1.1-0.1-1.3c-0.2-0.3-0.7-0.4-1.1-0.4
						c-0.3,0-0.9,0-1.4,0.5c-0.4,0.3-0.5,0.8-0.6,1.3c-0.1,0.5-0.2,1.3,0.5,1.6c0.2,0.1,0.6,0.1,0.8,0.1c0.5,0,1.1-0.2,1.5-0.6
						C18.5,11,18.7,10.5,18.7,10.2L18.7,10.2L18.7,10.2z M30.3,12c-0.6,0-0.7,0-1.3,0l0,0c0.1-0.5,0.3-1.1,0.4-1.7
						c0.2-0.7,0.2-1,0.3-1.5l0,0c0.6-0.1,0.7-0.1,1.3-0.2l0,0C31,9.1,30.9,9.6,30.8,10C30.6,11,30.5,11.4,30.3,12L30.3,12L30.3,12
						L30.3,12z"/>
					<path id="path20" class="st3" d="M29.5,10.3c0,0.1-0.1,0.6-0.3,0.8c-0.1,0.1-0.3,0.2-0.5,0.2c0,0-0.3,0-0.3-0.3
						c0-0.2,0-0.4,0.1-0.5c0.1-0.5,0.3-1,0.7-1C29.5,9.4,29.6,9.7,29.5,10.3L29.5,10.3L29.5,10.3z M30.6,10.3
						c0.2-0.7-0.5-0.1-0.6-0.3c-0.2-0.4-0.1-1.1-0.7-1.4c-0.3-0.1-0.9,0-1.4,0.5c-0.4,0.3-0.5,0.8-0.6,1.2c-0.1,0.4-0.2,1.3,0.5,1.6
						c0.2,0.1,0.4,0.1,0.7,0.1c0.7,0,1.3-1.2,1.7-1.6C30.5,10.1,30.6,10.6,30.6,10.3L30.6,10.3z M22,11.9c-0.5,0-0.6,0-1.2,0l0,0
						c0-0.2,0.1-0.4,0.2-0.6l0.1-0.3c0.1-0.5,0.2-1,0.2-1.1c0-0.1,0-0.3-0.2-0.3c-0.1,0-0.2,0.1-0.4,0.1c-0.1,0.2-0.2,0.9-0.3,1.2
						c-0.1,0.7-0.1,0.7-0.2,1.1l0,0c-0.5,0-0.7,0-1.2,0l0,0c0.1-0.4,0.2-0.8,0.3-1.2c0.2-1.1,0.3-1.5,0.4-2l0,0
						c0.6-0.1,0.7-0.1,1.3-0.2l0,0.1l-0.1,0.3c0.1-0.1,0.2-0.1,0.3-0.2c0.3-0.1,0.6-0.2,0.8-0.2c0.3,0,0.5,0.1,0.7,0.4
						c0.1,0.3,0,0.6-0.1,1.3l-0.1,0.3C22.1,11.2,22.1,11.3,22,11.9L22,11.9L22,11.9L22,11.9z M26.1,6.1l-0.4,0c-1,0-1.4,0-1.6,0
						c0,0.1,0,0.2,0,0.2s-0.4,1.7-0.4,1.7c0,0-0.9,3.7-0.9,3.8c0.9,0,1.3,0,1.4,0c0-0.2,0.2-1.2,0.2-1.2c0,0,0.2-0.8,0.2-0.8
						c0,0,0.1-0.1,0.1-0.1h0.1c0.8,0,1.7,0,2.3-0.5C27.6,9,28,8.5,28.1,7.8c0-0.2,0.1-0.3,0.1-0.5c0-0.2,0-0.5-0.2-0.7
						C27.6,6.1,26.9,6.1,26.1,6.1L26.1,6.1z M26.6,7.9c-0.1,0.4-0.3,0.7-0.6,0.9c-0.3,0.1-0.6,0.1-0.9,0.1h-0.2l0-0.1
						c0,0,0.4-1.7,0.4-1.7l0-0.1l0-0.1l0.2,0c0,0,0.8,0.1,0.8,0.1C26.6,7.2,26.7,7.5,26.6,7.9L26.6,7.9z M35.1,8.5L35.1,8.5
						c-0.6,0.1-0.7,0.1-1.3,0.2l0,0c0,0,0,0,0,0v0c-0.4,0.9-0.4,0.7-0.7,1.5c0,0,0-0.1,0-0.1L33,8.5l0-0.1c-0.6,0.1-0.6,0.1-1.2,0.2
						l0,0c0,0,0,0,0,0.1l0,0c0.1,0.4,0.1,0.3,0.1,0.9c0,0.3,0.1,0.6,0.1,0.8c0.1,0.5,0.1,0.7,0.2,1.4c-0.4,0.6-0.5,0.9-0.8,1.4
						l0,0.1c0.6,0,0.7,0,1.1,0l0.1-0.1C32.7,12.6,35.1,8.5,35.1,8.5L35.1,8.5L35.1,8.5z M15,9c0.3-0.2,0.4-0.5,0.1-0.7
						c-0.3-0.2-0.7-0.1-1.1,0.1c-0.3,0.2-0.4,0.5-0.1,0.7C14.2,9.2,14.6,9.2,15,9L15,9z"/>
					<path id="path22" class="st3" d="M32.3,13.4l-0.5,0.8c-0.1,0.3-0.4,0.5-0.8,0.5l-0.7,0l0.2-0.7h0.1c0.1,0,0.1,0,0.2,0
						c0,0,0.1,0,0.1-0.1l0.3-0.4L32.3,13.4L32.3,13.4L32.3,13.4z"/>
				</g>
			</g>
		</g>
	</g>
</g>
</svg>
