<svg width="30" height="30" viewBox="0 0 30 30" fill="none" xmlns="http://www.w3.org/2000/svg">
<path d="M29.7789 12.5524C27.9 10.7508 26.0321 8.9381 24.1531 7.12544C23.1804 6.18596 21.8209 6.00911 20.6383 6.67228C19.8867 7.09228 19.1351 7.52334 18.3835 7.94335C17.853 8.25282 17.6872 8.66178 17.8641 9.24758C18.0851 9.99916 18.8588 10.3197 19.522 9.93285C20.2183 9.52389 20.9146 9.11494 21.622 8.70599C22.0641 8.45177 22.3073 8.48493 22.6831 8.82757C23.6225 9.70074 24.562 10.5629 25.5015 11.436C25.7336 11.646 25.9547 11.8671 26.2089 12.1102C18.6488 12.1102 11.1329 12.1102 3.62807 12.1102C3.61702 12.0881 3.60597 12.066 3.59492 12.0439C3.65018 12.0108 3.70544 11.9776 3.74966 11.9334C4.92125 10.8171 6.09285 9.70074 7.26444 8.58441C7.70655 8.1644 7.91655 8.1423 8.42498 8.46283C9.15446 8.91599 9.88395 9.38021 10.6245 9.83337C10.8676 9.98811 11.1219 10.1207 11.4313 10.0323C11.8956 9.88864 12.1719 9.55705 12.2603 9.09284C12.3487 8.62862 12.1829 8.25282 11.785 7.99861C10.9892 7.49018 10.2045 6.98176 9.39762 6.50649C8.25919 5.83227 6.83338 5.9649 5.93811 6.82702C4.07019 8.62862 2.20227 10.4302 0.334347 12.2318C0.0911854 12.4639 -0.0193424 12.7513 0.00276319 13.0829C0.0690799 14.1218 0.124345 15.1608 0.190662 16.1998C0.30119 17.924 0.378558 19.6593 0.511192 21.3835C0.621719 22.8093 1.83752 23.9146 3.27439 23.9146C6.11495 23.9257 8.96657 23.9146 11.8071 23.9146C13.1445 23.9146 14.4266 23.0414 14.7251 21.6488C14.7803 21.4056 14.8577 21.1625 14.9351 20.9193C14.9572 20.9193 14.9682 20.9193 14.9903 20.9304C15.0677 21.1956 15.1451 21.4498 15.2114 21.7151C15.6093 23.1409 16.6593 23.9257 18.1293 23.9146C19.9751 23.9036 21.8099 23.9146 23.6557 23.9146C24.8273 23.9146 25.9989 23.9478 27.1594 23.8704C28.5079 23.782 29.6021 22.5883 29.6132 21.2951C29.6242 20.1125 29.7237 18.9409 29.7789 17.7693C29.8563 16.1998 29.9226 14.6192 30 13.0497C30 12.8508 29.9337 12.7071 29.7789 12.5524ZM27.7121 14.8845C27.6126 16.3324 27.5242 17.7914 27.4247 19.2393C27.3694 19.9798 27.3252 20.7314 27.27 21.4719C27.2368 21.892 27.0047 22.102 26.5515 22.102C24.5068 22.102 22.462 22.102 20.4172 22.102C19.6104 22.102 18.7925 22.102 17.9856 22.102C17.444 22.102 17.3225 22.0135 17.1898 21.5051C16.9798 20.7204 16.7809 19.9356 16.5819 19.1619C16.3498 18.2556 15.7088 17.7251 14.8466 17.7251C14.0287 17.7251 13.3214 18.3109 13.0893 19.173C12.8792 19.9688 12.6692 20.7756 12.4592 21.5714C12.3487 21.9914 12.205 22.113 11.785 22.113C8.87814 22.113 5.97126 22.113 3.05333 22.113C2.62227 22.113 2.41227 21.903 2.39016 21.4719C2.29069 19.6482 2.20227 17.8135 2.10279 15.9898C2.08069 15.4703 2.04753 14.9508 2.01437 14.3871C10.6024 14.3871 19.1572 14.3871 27.7452 14.3871C27.7452 14.5419 27.7231 14.7187 27.7121 14.8845Z" fill="white"/>
</svg>
